# xmcd CD database file
#
# Track frame offsets:
#	150
#	20689
#	81096
#	127066
#	164374
#	214988
#	254125
#	292532
#	333122
#	367187
#
# Disc length: 5191 seconds
#
# Revision: 0
# Processed by: cddbd v1.5.2PL0 Copyright (c) Steve Scherf et al.
# Submitted via: CDex 1.51
#
DISCID=9a14450a
DTITLE=Iain McDowall - Zwei Tote im Fluss [CD2)
DYEAR=2008
DGENRE=Audiobook
TTITLE0=Kapitel 11
TTITLE1=Kapitel 12
TTITLE2=Kapitel 13
TTITLE3=Kapitel 14
TTITLE4=Kapitel 15
TTITLE5=Kapitel 16
TTITLE6=Kapitel 17
TTITLE7=Kapitel 18
TTITLE8=Kapitel 19
TTITLE9=Kapitel 20
EXTD=YEAR: 2008
EXTT0=
EXTT1=
EXTT2=
EXTT3=
EXTT4=
EXTT5=
EXTT6=
EXTT7=
EXTT8=
EXTT9=
PLAYORDER=
